<?xml version="1.0" encoding="UTF-8" standalone="no"?>
<!DOCTYPE svg PUBLIC "-//W3C//DTD SVG 1.1//EN" "http://www.w3.org/Graphics/SVG/1.1/DTD/svg11.dtd">
<svg width="100%" height="100%" viewBox="0 0 2024 2024" version="1.1" xmlns="http://www.w3.org/2000/svg" xmlns:xlink="http://www.w3.org/1999/xlink" xml:space="preserve" xmlns:serif="http://www.serif.com/" style="fill-rule:evenodd;clip-rule:evenodd;stroke-linecap:round;stroke-linejoin:round;stroke-miterlimit:1.5;">
    <g transform="matrix(1.471207,0,0,1.471207,-104.029537,-65.959907)">
        <g transform="matrix(1,0,0,1,36.332682,-4.781483)">
            <g transform="matrix(0.673383,0,0,0.673383,439.457017,131.36651)">
                <path d="M1012,1012C705.804,995.828 790.702,1153.127 658.211,1121.11C493.264,1081.25 639.621,742.639 705.802,647.492C732.628,608.926 786.113,587.744 833.085,586.981L1012,584.075L1190.915,586.981C1237.887,587.744 1291.372,608.926 1318.198,647.492C1384.379,742.639 1530.736,1081.25 1365.789,1121.11C1233.298,1153.127 1318.196,995.828 1012,1012Z" style="stroke:black;stroke-width:1.01px;"/>
            </g>
            <g transform="matrix(14.829615,0,0,14.829615,-2518.518368,-3354.530409)">
                <path d="M246.203,306.033C245.581,306.95 244.865,307.804 244.056,308.597C242.456,310.163 240.514,311.388 238.231,312.272C235.947,313.155 233.339,313.597 230.406,313.597C227.439,313.597 224.689,313.147 222.156,312.247C219.622,311.347 217.414,310.055 215.531,308.372C213.647,306.688 212.189,304.647 211.156,302.247C210.575,300.898 209.622,295.255 209.606,294.447C209.59,293.638 209.606,257.834 209.606,257.724C209.606,254.724 210.131,252.024 211.181,249.624C212.231,247.224 213.706,245.183 215.606,243.499C217.506,241.816 219.739,240.524 222.306,239.624C224.872,238.724 227.689,238.274 230.756,238.274C234.589,238.274 237.947,238.899 240.831,240.149C243.714,241.399 246.039,243.108 247.806,245.274C249.572,247.441 250.656,249.924 251.056,252.724L244.356,252.724C243.989,250.958 243.197,249.424 241.981,248.124C240.764,246.824 239.206,245.824 237.306,245.124C235.406,244.424 233.206,244.074 230.706,244.074C227.772,244.074 225.231,244.616 223.081,245.699C220.931,246.783 219.264,248.341 218.081,250.374C216.897,252.408 216.306,254.858 216.306,257.724L216.306,294.447C216.306,295.789 217.066,299.738 218.131,301.547C219.347,303.613 221.072,305.197 223.306,306.297C225.539,307.397 228.172,307.947 231.206,307.947C234.139,307.947 236.706,307.447 238.906,306.447C241.106,305.447 242.839,304.055 244.106,302.272C244.725,301.4 245.205,300.458 245.545,299.447L232.506,299.447L232.506,294.447L251.456,294.447L251.456,312.897L246.556,312.897L246.203,306.033Z"/>
            </g>
        </g>
        <g transform="matrix(14.829615,0,0,14.829615,-3066.578729,-3364.911139)">
            <path d="M211.556,276.474L211.556,238.974L231.406,238.974C234.206,238.974 236.631,239.474 238.681,240.474C240.731,241.474 242.314,242.866 243.431,244.649C244.547,246.433 245.106,248.491 245.106,250.824C245.106,253.158 244.547,255.216 243.431,256.999C242.314,258.783 240.731,260.174 238.681,261.174C236.631,262.174 234.206,262.674 231.406,262.674L218.156,262.674L218.156,276.474L235.656,276.474C239.122,276.474 241.797,277.283 243.681,278.899C245.564,280.516 246.506,282.741 246.506,285.574C246.506,287.074 246.147,288.533 245.431,289.949C244.714,291.366 243.564,292.566 241.981,293.549C241.518,293.837 241.008,294.092 240.452,294.316C241.603,294.54 242.629,294.859 243.531,295.274C245.414,296.141 246.797,297.308 247.681,298.774C248.564,300.241 249.006,301.891 249.006,303.724C249.006,305.724 248.531,307.491 247.581,309.024C246.631,310.558 245.239,311.766 243.406,312.649C241.572,313.533 239.289,313.974 236.556,313.974L211.556,313.974L214.506,294.724L211.556,276.474ZM218.156,256.974L231.156,256.974C233.422,256.974 235.197,256.424 236.481,255.324C237.764,254.224 238.406,252.724 238.406,250.824C238.406,248.924 237.764,247.424 236.481,246.324C235.197,245.224 233.422,244.674 231.156,244.674L218.156,244.674L218.156,256.974ZM220.467,297.274L218.731,308.674L235.806,308.674C237.872,308.674 239.481,308.199 240.631,307.249C241.781,306.299 242.356,304.941 242.356,303.174C242.356,301.308 241.681,299.858 240.331,298.824C238.981,297.791 236.989,297.274 234.356,297.274L220.467,297.274ZM218.763,281.774L220.444,292.174L233.706,292.174C235.472,292.174 236.939,291.683 238.106,290.699C239.272,289.716 239.856,288.308 239.856,286.474C239.856,285.108 239.372,283.983 238.406,283.099C237.439,282.216 236.039,281.774 234.206,281.774L218.763,281.774Z"/>
        </g>
    </g>
</svg>
