<?xml version="1.0" encoding="UTF-8" standalone="no"?>
<!DOCTYPE svg PUBLIC "-//W3C//DTD SVG 1.1//EN" "http://www.w3.org/Graphics/SVG/1.1/DTD/svg11.dtd">
<svg width="100%" height="100%" viewBox="0 0 2024 2024" version="1.1" xmlns="http://www.w3.org/2000/svg" xmlns:xlink="http://www.w3.org/1999/xlink" xml:space="preserve" xmlns:serif="http://www.serif.com/" style="fill-rule:evenodd;clip-rule:evenodd;stroke-linejoin:round;stroke-miterlimit:2;">
    <g transform="matrix(21.817436,0,0,21.817436,-4485.694972,-5019.958654)">
        <path d="M211.556,276.474L211.556,238.974L231.406,238.974C234.206,238.974 236.631,239.474 238.681,240.474C240.731,241.474 242.314,242.866 243.431,244.649C244.547,246.433 245.106,248.491 245.106,250.824C245.106,253.158 244.547,255.216 243.431,256.999C242.314,258.783 240.731,260.174 238.681,261.174C236.631,262.174 234.206,262.674 231.406,262.674L218.156,262.674L218.156,276.474L235.656,276.474C239.122,276.474 241.797,277.283 243.681,278.899C245.564,280.516 246.506,282.741 246.506,285.574C246.506,287.074 246.147,288.533 245.431,289.949C244.714,291.366 243.564,292.566 241.981,293.549C241.518,293.837 241.008,294.092 240.452,294.316C241.603,294.54 242.629,294.859 243.531,295.274C245.414,296.141 246.797,297.308 247.681,298.774C248.564,300.241 249.006,301.891 249.006,303.724C249.006,305.724 248.531,307.491 247.581,309.024C246.631,310.558 245.239,311.766 243.406,312.649C241.572,313.533 239.289,313.974 236.556,313.974L211.556,313.974L214.506,294.724L211.556,276.474ZM218.156,256.974L231.156,256.974C233.422,256.974 235.197,256.424 236.481,255.324C237.764,254.224 238.406,252.724 238.406,250.824C238.406,248.924 237.764,247.424 236.481,246.324C235.197,245.224 233.422,244.674 231.156,244.674L218.156,244.674L218.156,256.974ZM220.467,297.274L218.731,308.674L235.806,308.674C237.872,308.674 239.481,308.199 240.631,307.249C241.781,306.299 242.356,304.941 242.356,303.174C242.356,301.308 241.681,299.858 240.331,298.824C238.981,297.791 236.989,297.274 234.356,297.274L220.467,297.274ZM218.763,281.774L220.444,292.174L233.706,292.174C235.472,292.174 236.939,291.683 238.106,290.699C239.272,289.716 239.856,288.308 239.856,286.474C239.856,285.108 239.372,283.983 238.406,283.099C237.439,282.216 236.039,281.774 234.206,281.774L218.763,281.774Z" style="fill:white;stroke:white;stroke-opacity:0;stroke-width:0.05px;"/>
    </g>
    <g transform="matrix(1,0,0,1,207.35567,-206.093276)">
        <path d="M1634.745,1833.671C1530.954,1974.377 1090.334,1974.377 986.544,1833.671C882.753,1692.965 957.375,1084.635 1012,989.435C1019.041,977.164 1035.009,967.263 1056.091,959.274C1052.953,869.893 1053.327,627.442 1144.658,557.828C1224.48,496.986 1310.644,496.986 1310.644,496.986L1310.644,578.606C1310.644,578.606 1249.65,580.088 1206.597,614.686C1125.556,679.811 1132.273,858.616 1139.916,939.124C1221.453,926.455 1310.644,925.928 1310.644,925.928C1310.644,925.928 1399.869,926.455 1481.418,939.131C1489.062,858.627 1495.781,679.813 1414.738,614.686C1371.684,580.088 1310.69,578.606 1310.69,578.606L1310.69,496.986C1310.69,496.986 1396.855,496.986 1476.677,557.828C1568.013,627.447 1568.381,869.924 1565.243,959.291C1586.303,967.277 1602.253,977.173 1609.289,989.435C1663.914,1084.635 1738.536,1692.965 1634.745,1833.671ZM1362.253,1402.394L1362.253,1210C1362.253,1195.758 1350.691,1184.196 1336.449,1184.196L1284.84,1184.196C1270.598,1184.196 1259.036,1195.758 1259.036,1210L1259.036,1402.394C1221.27,1421.345 1195.325,1460.433 1195.325,1505.532C1195.325,1569.178 1246.998,1620.851 1310.644,1620.851C1374.291,1620.851 1425.963,1569.178 1425.963,1505.532C1425.963,1460.433 1400.019,1421.345 1362.253,1402.394Z" style="fill:white;stroke:white;stroke-width:1px;stroke-linecap:round;stroke-miterlimit:1.5;"/>
    </g>
</svg>
