<?xml version="1.0" encoding="UTF-8" standalone="no"?>
<!DOCTYPE svg PUBLIC "-//W3C//DTD SVG 1.1//EN" "http://www.w3.org/Graphics/SVG/1.1/DTD/svg11.dtd">
<svg width="100%" height="100%" viewBox="0 0 2024 2024" version="1.1" xmlns="http://www.w3.org/2000/svg" xmlns:xlink="http://www.w3.org/1999/xlink" xml:space="preserve" xmlns:serif="http://www.serif.com/" style="fill-rule:evenodd;clip-rule:evenodd;stroke-linecap:round;stroke-linejoin:round;stroke-miterlimit:1.5;">
    <g transform="matrix(1.403397,0,0,1.403397,-827.354452,-697.468572)">
        <path d="M1634.745,1833.671C1530.954,1974.377 1090.334,1974.377 986.544,1833.671C882.753,1692.965 957.375,1084.635 1012,989.435C1019.041,977.164 1035.009,967.263 1056.091,959.274C1052.953,869.893 1053.327,627.442 1144.658,557.828C1224.48,496.986 1310.644,496.986 1310.644,496.986L1310.644,578.606C1310.644,578.606 1249.65,580.088 1206.597,614.686C1125.556,679.811 1132.273,858.616 1139.916,939.124C1221.453,926.455 1310.644,925.928 1310.644,925.928C1310.644,925.928 1399.869,926.455 1481.418,939.131C1489.062,858.627 1495.781,679.813 1414.738,614.686C1371.684,580.088 1310.69,578.606 1310.69,578.606L1310.69,496.986C1310.69,496.986 1396.855,496.986 1476.677,557.828C1568.013,627.447 1568.381,869.924 1565.243,959.291C1586.303,967.277 1602.253,977.173 1609.289,989.435C1663.914,1084.635 1738.536,1692.965 1634.745,1833.671ZM1362.253,1402.394L1362.253,1210C1362.253,1195.758 1350.691,1184.196 1336.449,1184.196L1284.84,1184.196C1270.598,1184.196 1259.036,1195.758 1259.036,1210L1259.036,1402.394C1221.27,1421.345 1195.325,1460.433 1195.325,1505.532C1195.325,1569.178 1246.998,1620.851 1310.644,1620.851C1374.291,1620.851 1425.963,1569.178 1425.963,1505.532C1425.963,1460.433 1400.019,1421.345 1362.253,1402.394Z" style="stroke:black;stroke-width:0.71px;"/>
    </g>
</svg>
